<svg width="26" height="27" viewBox="0 0 26 27" xmlns="http://www.w3.org/2000/svg" xmlns:xlink="http://www.w3.org/1999/xlink"><g id="Page-1" stroke="none" stroke-width="1" fill="none" fill-rule="evenodd"><g id="linked"><g id="Group-3" transform="translate(0 .106)"><path d="M12.634 26.12c6.978 0 12.635-5.703 12.635-12.739 0-7.034-5.657-12.738-12.635-12.738C5.657.643 0 6.347 0 13.38c0 7.037 5.657 12.74 12.634 12.74" id="Fill-1" fill="#0073B5"/><path d="M8.43 7.014c.787 0 1.427.667 1.427 1.488 0 .822-.64 1.489-1.428 1.489C7.64 9.99 7 9.324 7 8.502c0-.82.64-1.488 1.43-1.488zM7.195 19.38H9.66v-8.26H7.196v8.26z" id="Fill-1" fill="#FFF"/></g><path d="M11.207 11.226h2.363v1.129h.033c.33-.65 1.133-1.334 2.332-1.334 2.496 0 2.957 1.71 2.957 3.934v4.53h-2.463V15.47c0-.958-.017-2.19-1.28-2.19-1.283 0-1.48 1.043-1.48 2.12v4.087h-2.462v-8.26z" id="Fill-4" fill="#FFF"/></g></g></svg>