<svg version="1.1" id="Layer_1" xmlns="http://www.w3.org/2000/svg" xmlns:xlink="http://www.w3.org/1999/xlink" x="0" y="0" width="157.5" height="39.334" viewBox="0 0 157.5 39.334" xml:space="preserve"><defs><path id="SVGID_1_" d="M149.445 18.102h-3.539v-2.866h10.351v2.866h-3.54v8.935h-3.271v-8.935h-.001zm-8.326-2.866h3.287v11.8h-3.287v-11.8zm-10.991 0h9.44v2.866h-6.17v2.006h5.578v2.714h-5.578v4.215h-3.271l.001-11.801zm-8.073 12.036c-.91 0-1.754-.16-2.529-.48s-1.443-.756-2.006-1.307-1.004-1.197-1.324-1.938a5.95 5.95 0 01-.479-2.377v-.034a6.01 6.01 0 011.821-4.34 6.332 6.332 0 012.021-1.315 6.564 6.564 0 012.528-.48c.91 0 1.753.16 2.528.48s1.443.756 2.007 1.306a6.03 6.03 0 011.323 1.939c.32.741.479 1.534.479 2.376v.033a6.002 6.002 0 01-1.821 4.342c-.572.557-1.246.994-2.021 1.314s-1.618.481-2.527.481zm.032-2.95c.45 0 .86-.085 1.229-.253.371-.17.687-.396.945-.684.258-.287.461-.621.605-1.003.146-.383.22-.786.22-1.214v-.034c0-.427-.073-.831-.22-1.214a3.08 3.08 0 00-1.584-1.71c-.371-.174-.781-.261-1.23-.261s-.857.084-1.223.252a2.937 2.937 0 00-1.55 1.686 3.521 3.521 0 00-.211 1.214v.032c0 .429.074.832.221 1.214.146.383.352.721.615 1.012.264.293.58.525.951.699a2.84 2.84 0 001.232.264zm-18.088-9.086h5.58c.909 0 1.68.112 2.31.337.629.225 1.141.54 1.534.944.696.674 1.045 1.59 1.045 2.748v.034c0 .91-.219 1.663-.657 2.259-.438.596-1.027 1.051-1.771 1.365l2.815 4.113h-3.776l-2.377-3.574h-1.432v3.574h-3.271v-11.8zm5.429 5.663c.562 0 .994-.127 1.299-.379.303-.254.455-.594.455-1.021v-.034c0-.472-.158-.823-.473-1.053s-.748-.346-1.299-.346h-2.141v2.833h2.159zm-16.774-5.663h5.058c.741 0 1.416.093 2.022.278a4.449 4.449 0 011.551.809c.428.354.756.79.986 1.307.229.517.346 1.101.346 1.753v.034c0 .696-.127 1.309-.379 1.837a3.75 3.75 0 01-1.055 1.332 4.608 4.608 0 01-1.609.81 7.297 7.297 0 01-2.031.271h-1.618v3.371h-3.271V15.236zm4.823 5.867c.584 0 1.041-.138 1.373-.412.332-.275.498-.649.498-1.122v-.034c0-.505-.166-.89-.498-1.154-.332-.264-.795-.396-1.391-.396h-1.534v3.12h1.552v-.002zm-16.066-5.867H90.9v2.782h-6.254v1.787h5.664v2.579h-5.664v1.871h6.338v2.781h-9.573v-11.8zm-10.384 0h3.271v8.934h5.714v2.866h-8.985v-11.8zm-11.244 0h9.491v2.782H63.02v1.787h5.664v2.579H63.02v1.871h6.338v2.781h-9.575v-11.8zm-8.243 2.866H48v-2.866h10.35v2.866h-3.54v8.935h-3.27v-8.935z"/></defs><clipPath id="SVGID_2_"><use xlink:href="#SVGID_1_" overflow="visible"/></clipPath><g clip-path="url(#SVGID_2_)"><defs><path id="SVGID_3_" d="M-380-281h600v800h-600z"/></defs><clipPath id="SVGID_4_"><use xlink:href="#SVGID_3_" overflow="visible"/></clipPath><path clip-path="url(#SVGID_4_)" fill="#FFF" d="M43 10h118.257v22.272H43z"/></g><g clip-path="url(#SVGID_2_)"><defs><path id="SVGID_5_" d="M12.724 37.79c.689.251 1.397.463 2.121.635v-19.17h8.482V38.5a18.83 18.83 0 002.121-.593V12.836h8.482v19.228a19.52 19.52 0 004.57-12.596C38.5 8.716 29.881 0 19.253 0 8.615 0 0 8.716 0 19.469a19.52 19.52 0 004.241 12.193v-5.989h8.482l.001 12.117z"/></defs><clipPath id="SVGID_6_"><use xlink:href="#SVGID_5_" overflow="visible"/></clipPath><g clip-path="url(#SVGID_6_)"><defs><path id="SVGID_7_" d="M-380-281h600v800h-600z"/></defs><clipPath id="SVGID_8_"><use xlink:href="#SVGID_7_" overflow="visible"/></clipPath><path clip-path="url(#SVGID_8_)" fill="#FFF" d="M-5-5h48.5v48.5H-5z"/></g></g></svg>