<?xml version="1.0" encoding="UTF-8" standalone="no"?><svg width="568" height="321" xmlns="http://www.w3.org/2000/svg" viewBox="0 0 568 321"><path d="M513.562 12.683c2.091-6.205 7.732-9.655 13.14-12.683.705 3.27 1.378 6.54 1.944 9.835 3.024 1.248 6.033 2.565 9.16 3.566-1.462 2.294-3.187 4.407-4.963 6.456-2.646 3.046-3.034 3.029-6.876 2.492-2.25-.311-2.265 3.552-2.75 5.46.138 2.118-.727 2.591-2.6 1.405-2.09-.484-4.187-.952-6.279-1.446 1.093 1.889 2.864 3.16 4.9 3.86 3.54 1.221 3.362 1.273 4.61 5.096 1.215 3.684 1.827 4-.938 6.657-1.583 1.53-3.06 3.275-3.527 5.486 3.03-2.1 6.229-5.388 9.933-4.988 4.41.483 8.853.447 13.278.518-.018 2.82-1.8 5.07-3.453 7.18-2.094 2.678-.49 8.597-.124 11.907.868 7.76 2.445 15.53 5.749 22.651-4.197.284-6.265-.555-7.637 3.871a22.659 22.659 0 00-.568 11.067c-1.267-1.019-2.534-2.04-3.802-3.057.464 1.726.938 3.444 1.422 5.169.575 2.052-2.649 1.695-2.938 4.178-.397 3.482 2.916 6.81 4.596 9.54 1.12-3.063 1.937-6.222 3.042-9.288.11 2.11.225 4.225.321 6.336.14 2.938-.891 2.592-3.338 3.664a21.27 21.27 0 003.84 5.194 348.29 348.29 0 013.9-3.273c1.997 5.127 7.555 6.16 12.26 7.471-1.81 1.81-5.849 4.052-3.835 6.307 2.388 2.68 5.644 4.33 8.438 6.52-3.075 5.168-2.207 11.86 3.76 14.37-.725 1.38-1.445 2.76-2.17 4.141-1.087 2.07 1.395 4.104 2.382 6.152 2.227 4.624 3.208 9.744 3.561 14.839-8.548-5.877-17.485-11.198-25.641-17.62-3.468-2.733-7.434-5.616-9.708-9.481-1.204-2.043-2.023-4.286-2.712-6.549-.886-2.943-.775-3.409-3.759-4.29 2.122-4.284 3.82-6.406 2.372-11.108-1.454-4.713-3.136-9.37-4.11-14.21-.826-4.14.858-11.351-1.807-14.1-1.6-1.647-3.225-3.273-4.845-4.898-2.199-2.204-1.255-3.043-.579-5.858-1.507 1.31-2.947 2.71-4.35 4.134 4.35 3.747 4.238 9.579 5.135 14.78.603 3.52 2.134 4.163-1.231 6.065-1.311-1.543-4.097-6.414-5.94-5.329-2.695 1.583-3.633 2.443-5.126 5.273-2.017 3.828-1.036 5.696-.168 9.86.764 3.675 1.395 7.373 2.084 11.065.565 3.057.72 2.17 3.356 1.797 1.533-.218 3.08-.43 4.615-.654-1.817 1.753-3.667 3.474-5.427 5.294a34.297 34.297 0 01-5.636 8.628c-.71-1.737-1.42-3.477-2.15-5.208-1.99 1.042-3.984 2.076-5.978 3.106-2.582 1.33-1.98 1.236-1.77 3.812.198 2.487.799 2.472-1.646 3.735-1.857.956-3.693 1.944-5.546 2.91.447 2.93-3.766 3.417-6.024 5.17-2.577 1.998-4.756 4.663-5.515 7.876-1.616 6.804-1.868 14.527-2.74 21.483-1.062 8.483-2.058 17.107-5.449 25.038 1.895-.66 5.035-.553 6.422-2.207.96-1.143-.24-2.716-.974-3.573 2.035-1.487 4.024-3.032 6.099-4.472.124 2.59.276 5.179.46 7.766-1.83-1.188-3.737-2.053-5.713-2.975.717 1.84 2.015 3.377 3.266 4.873 1.998 2.387 4.812 1.407 7.809 1.983.104-2.72.15-5.444.167-8.167 3.164-1.065 6.51-.696 9.67.153 3.95 1.058 4.892 2.816 7.398 5.881 2.54 3.106 2.024 4.152 2.74 7.867.977 5.115 4.31 9.308 6.953 13.648 3.612 5.956 3.278 11.448 3.575 18.249.563 12.826-.408 25.811-2.999 38.407-.938 4.575-3.532 10.55-8.497 11.977-2.486.709-5.102.167-7.637.29-.818 3.629-1.932 7.177-3.038 10.722-2.983-4.185-.2-9.932-2.633-14.623-1.209-2.322-2.634-4.521-4.036-6.73 1.02-2.327 2.86-4.077 5.144-5.148 2.59-1.222 4.465-.168 4.155-3.5a142.863 142.863 0 00-1.08-8.521c-.986-6.373-2.295-12.68-3.445-19.02-2.656 3.088-4.809 6.564-7.329 9.762-1.417 1.813-2.965 3.542-4.752 5.01-3.025 2.493-3.118 1.733-5.48-1.06a990.09 990.09 0 01-3.836-4.556c-2.897-.36-5.81-.598-8.733-.536-4.512.1-8.904 1.466-11.758-3.08-3.904-6.232-8.545-13.24-15.675-16.06-8.46-3.344-18.294 2.153-24.5 7.82 8.323 6.674-1.59 17.439 3.144 25.469-2.24 1.942-4.477 3.882-6.586 5.968-2.92-1.518-6.202-1.856-9.439-1.991-3.215-.13-6.489-.125-9.592-1.084-2.03 2.408-4.207 4.706-6.602 6.76-4.874 4.178-9.201 6.587-15.7 5.801-6.922-.839-12.472-5.188-19.048-6.348-4.337-.767-13.156 3.974-16.282 1.454-1.933-1.554-2.938-3.886-3.973-6.063-1.517-3.205-3.795-3.706-7.036-4.92-2.554-.957-5.12-1.863-7.61-2.985-3.144-1.414-5.482 2.957-7.37 5.56-.32 3.63 2.968 7.441.023 9.88-3.148 2.606-3.648 2.56-7.542 1.841-4.253-.785-8.958-1.834-11.548-5.66-1.499-2.21-4.276-1.57-6.93-1.72-3.495-1.645-5.362-1.44-8.915-.14-5.633 2.064-10.989 4.821-16.691 6.713a47.344 47.344 0 01-3.85 1.112c-1.437-1.646-2.894-3.27-4.327-4.915-2.153.45-4.533.309-6.246-1.224-1.36-1.216-2.038-2.996-2.365-4.751-1.531-2.84-2.811-5.824-4.532-8.564-2.588-1.3-5.541-.081-8.154.384-2.861.506-4.094-5.036-5.18-7.392a465.077 465.077 0 00-5.363 5.277c-.438-10.652-.377-22.368-7.299-31.186 1.54-1.09 3.08-2.18 4.618-3.273-6.514 1.157-13.1 2.988-19.77 2.006.59-1.544 1.163-3.098 1.751-4.644-2.841-1.71-5.69-3.423-8.695-4.848.692-2.866 1.393-5.726 2.09-8.593-3.215-1.695-6.215-4.079-9.862-3.988-6.204.155-12.72-1.598-18.734-2.961-5.917-1.344-11.495-3.787-17.107-6.027.363 3.32.828 6.628 1.372 9.92a619.193 619.193 0 00-6.414-4.648c-.171 1.974-.304 3.94-.446 5.913a513.695 513.695 0 01-6.309-.718c.906 3.37 1.861 6.72 2.85 10.064-4.526.698-5.815.39-9.617-2.213-1.491-1.02-2.935-2.188-3.937-3.717-.974-1.498-.724-3.692-2.149-4.693-4.01-2.815-12.911-1.665-13.207-8.218-1.157.424-2.302.887-3.459 1.307 1.165-3.723.853-7.711-.712-11.267-1.658-3.763-4.718-4.53-7.65-7.138-2.63-2.339-7.988-1.603-11.449-1.647-3.285-.044-5.39 3.157-7.702 5.369.279-2.907.541-5.813.822-8.717-1.835.425-3.664.902-5.483 1.39-2.303.619-2.232 1.473-3.875 3.01-1.165 1.088-2.553 1.928-4.037 2.503-2.705 1.044-2.22 4.53-2.705 7.28 2.314 1.824 3.076 4.95 2.246 7.725a7.773 7.773 0 01-2.27 3.573c-1.959 1.718.635 4.04 1.857 6.193-6.077-1.522-12.387-3.76-18.732-2.526-3.534.692-4.234.857-3.739 4.255.523 3.55-.9 4.539-3.175 7.26-2.152 2.574-2.635 3.923-3.162 7.27-.23 1.468-.453 2.937-.674 4.409-.495 3.28-1.364 2.126-4.25 1.966-3.318-.18-3.989.292-4.593-3.135-.45-2.566-.579-5.173-.772-7.77-.329-4.435-.838-9.203-3.78-12.77-1.861-2.254-2.267-2.924-3.147-5.809-.895-2.95-2.232-5.736-3.64-8.474-2.735-5.297-5.414-10.078-6.088-16.084-.746-6.543-.796-13.143-.607-19.723a145.31 145.31 0 012.597 3.155c1.83 2.281 2.755 1.457 5.524 1.239 4.584-.365 4.336-.493 4.902-4.917 2.691 1.879 5.412 3.726 8.121 5.588l-3.207-7.11c2.891.812 5.757 1.749 8.577 2.785 3.142 1.157 4.355-.88 6.967-2.7 2.208-1.544 5.192-2.25 4.405-5.065-.638-2.287-1.075-4.622-1.613-6.93-.534-2.286-1.175-4.56-2.22-6.662-.905-1.819-3.284-3.77-2.998-5.953.274-2.086 2.12-3.722 3.575-5.059a834.63 834.63 0 00-2.388-5.294c2.098-.44 3.683-1.837 4.928-3.502 2.094-2.793 1.47-2.904-.845-5.34-1.722-1.817-3.45-3.625-5.052-5.551 1.892-2.232 4-4.272 6.054-6.348 1.798 1.969 2.661 5.607 5.95 5.462 1.107-2.187 1.446-4.636 1.696-7.046.354-3.45.957-4.146 3.573-6.472 1.595-1.423 3.188-2.856 4.628-4.439-.584-2.75-1.216-5.49-1.917-8.21-1.107-4.328 6.566-9.81 9.681-12.659 1.47 1.835 1.388 2.971 3.484 1.306 1.94-1.545 4.013-2.933 6.25-4.01 2.527-1.215 4.552-2.498 6.77-.49 1.997 1.808 3.91 3.703 5.968 5.433-.965-2.947-2.084-5.192-1.304-8.219.594-2.322-.08-2.426 2.783-1.907 2.201.395 4.395.822 6.599 1.201 3.438.599 9.076 2.254 12.45.948 2.754-1.066 2.298-5.01 3.132-7.279 6.297-5.5 13.903-9.35 19.81-15.316 2.139-2.165 4.983-1.715 7.54-3.364 1.022-.659 1.828-1.578 2.285-2.715 1.245-3.13.952-3.102 4.417-4.68 3.579-1.623 8.736 2.767 12.131 4.575-.23 1.802-1.196 3.427-1.25 5.267-.07 2.469 1.583 5.163 1.972 7.635.641 4.034.462 8.14.279 12.199-.14 3.216.624 7.423-1.806 9.997-3.118 3.303-9.386 2.953-12.359-.362-5.017-5.58-4.855-15.603-5.15-22.586a60.842 60.842 0 00-2.538 7.148 52.675 52.675 0 00-.918 3.7c-.552 2.596-1.807 2.847-3.923 4.356-3.558 2.53-5.285 3.053-5.238 7.52.037 3.074.294 6.212 1.731 8.992 2.387-3.304 1.928-8.88 6.46-10.382.294 4.51 1.055 9.005 2.442 13.313 1.44-1.656 2.767-3.395 4.212-5.043 2.238-2.551 5.267-1.545 8.443-1.268 1.97.173 4.554-.681 4.767 1.642.188 2.001.37 4.002.555 6.002 4.35-4.182 8.675-8.385 12.882-12.702 2.42-2.482 2.947-.33 5.1 1.706-.37 2.222-.753 4.445-1.117 6.667a253.118 253.118 0 00-7.03-1.854 801.674 801.674 0 00-1.73 7.36c4.74 1.555 9.601-1.189 14.37.045 5.857 1.08 11.685 2.388 17.62 2.977-2.432 1.036-4.692 2.473-6.627 4.281 3.191 2.17 6.041.152 8.772 3.081 1.772 1.901 6.922.57 9.48.444-1.409 1.834-3.012 3.645-4.198 5.632 1.746-.524 3.495-1.047 5.264-1.484 2.576-.636 1.923-1.348 2.41-3.76.738-3.676-1.816-6.882-.143-10.768 1.528 2.63 2.692 5.484 3.333 8.46 2.348 1.775 4.241 4.058 5.763 6.559 3.056 5.022 4.699 10.727 7.344 15.958 3.174-4.04 1.96-9.479.886-14.035 1.401-1.36 4.055-2.825 4.092-4.825.04-2.078-.607-3.327 1.435-4.04 7.365-2.576 10.854-11.987 19.12-12.593-1.887 2.17-3.722 2.767-2.063 5.157 1.563 2.257.954 4.866-.422 7.028-1.145 1.802-4.29 3.734-4.066 5.809.38 3.659-.323 5.067-2.129 8.318-1.398 2.52-2.756 5.164-3.198 8.043-.264 1.743-.157 3.519.373 5.206a90.6 90.6 0 01-3.977 4.458c-2.152 2.264-4.034 4.126-6.804 5.547-2.275 1.17-2.018 1.796-4.11-.118-1.532-1.402-3.11-2.765-4.771-4.023.777 3.483 3.517 5.843 6.26 7.855 2.265 1.661 5.276-.84 7.613-2.147 4.898-2.74 9.352-6.712 8.957-12.814 1.303.19 2.608.359 3.911.54 3.375.46 2.422 1.47 2.06 4.718-.248 2.202-.5 4.405-.59 6.62 1.622 1.879 3.384 3.639 5.107 5.423-1.173-2.214-2.478-4.357-3.546-6.623.58-2.366 1.687-4.554 2.322-6.904-1.824-4.346-6.424-6-10.573-7.32 2.509-4.764 6.377-8.52 6.23-13.941-.147-5.526 6.67-8.834 10.627-12.034a94.326 94.326 0 01-4.515 8.356c2.487.06 4.968.092 7.45.147-.568-2.041-1.12-4.081-1.687-6.118 2.572 2.102 4.851 4.54 7.073 7.001 1.862 2.068 5.97 4.805 4.464 7.208-3.204 5.113-2.733 12.188.363 17.232-.865-6.577 2.179-12.968 1.539-19.284-.395-3.854-4.917-6.755-3.311-10.89-3.408 1.015-7.25 1.47-5.867-3.42.546 1.243 1.084 2.488 1.629 3.736 1.548-1.283 3.088-2.58 4.64-3.856 2.1-1.727 3.104-1.083 5.695-.698 4.137.614 8.265 1.381 12.302 2.482-.25-3.15-.459-6.312-.655-9.47 3.425-2.287 7.079-4.29 10.969-5.646 3.86-1.35 7.994-2.039 12.076-1.488 3.18-1.246 6.191-3.95 9.851-2.889a243.831 243.831 0 00-1.56-4.77 465.287 465.287 0 015.906-6.817c1.66 1.064 2.94 2.613 3.405 4.553.57 2.4 1.965 1.561 4.343 1.612-.728 1.427-1.496 2.838-2.236 4.263l2.53-.108c-1.295-3.847 3.603-2.897 6.162-3.122a207.051 207.051 0 005.843 3.754c.623 2.82 1.274 5.632 2.025 8.421-5.905 6.955-11.64 14.06-17.342 21.182 2.796-1.808 5.559-3.673 8.34-5.506 3.714-2.456 3.272-3.104 3.14-7.343 1.806 1.184 3.615 2.36 5.42 3.545.469-4.128.108-3.667-3.797-5.024a162.588 162.588 0 014.744-3.522c.143 2.927.265 5.856.405 8.776 2.65-.814 5.294-1.65 7.967-2.366 1.345-.361 2.7-.683 4.065-.966.496 1.288 1.29 2.507 2.526 3.202 3.34 1.881 7.7-.513 10.89-1.639a601.072 601.072 0 01-2.403-6.418c3.075-.266 10.147-2.667 12.351-1.048 3.645 2.68 5.764 7.038 4.442 11.537.78-1.142 1.537-2.302 2.304-3.464.134 5.079 4.444 7.51 8.897 8.464-.538-3.63-1.134-7.25-1.773-10.866 1.472.627 2.949 1.248 4.428 1.868 2.147.898 1.579-.517 2.652-2.132 1.825-2.757 4.546-2.914 7.23-1.173.7-2.332 2.092-4.825 1.597-7.346-.345-1.746-1.566-2.152-1.596-3.979-.024-1.492-.042-2.986-.086-4.475 7.64-2.835 14.75-6.518 22.172-9.814.121 1.157.194 2.322.28 3.481 2.689-.46 9.863.516 11.139-1.587 1.46-2.402 2.65-4.972 4.35-7.22 1.686-2.224 3.915-3.945 6.751-4.296 2.939-1.08 5.173 1.603 7.354 3.047 4.493 2.986 6.937-7.26 8.742-9.557a6.729 6.729 0 012.98-2.185 162.747 162.747 0 011.558-3.562c-.677-2.805-.836-5.886 2.195-7.32-.08 2.154-.177 4.316-.296 6.474a1295.49 1295.49 0 0110.022-3.018c-2.917-2.898-7.075-3.646-10.888-4.685 5.47-5.527 7.697-13.73 14.155-18.357 3.099-2.222 21.161-9.306 19.587-13.063 4.29.065 9.188 2.415 13.063-.483-2.57-.167-5.131-.314-7.7-.485" fill="#EBEFF3" fill-rule="evenodd"/></svg>