<?xml version="1.0" encoding="UTF-8" standalone="no"?>
<svg width="26px" height="27px" viewBox="0 0 26 27" version="1.1" xmlns="http://www.w3.org/2000/svg" xmlns:xlink="http://www.w3.org/1999/xlink">
    <!-- Generator: Sketch 3.6.1 (26313) - http://www.bohemiancoding.com/sketch -->
    <title>fb</title>
    <desc>Created with Sketch.</desc>
    <defs></defs>
    <g id="Page-1" stroke="none" stroke-width="1" fill="none" fill-rule="evenodd">
        <g id="fb">
            <path d="M12.6343657,26.2256757 C19.6120229,26.2256757 25.26888,20.5230091 25.26888,13.4871737 C25.26888,6.45283621 19.6120229,0.748671605 12.6343657,0.748671605 C5.65670857,0.748671605 -0.000148571429,6.45283621 -0.000148571429,13.4871737 C-0.000148571429,20.5230091 5.65670857,26.2256757 12.6343657,26.2256757" id="Fill-1" fill="#547BBC"></path>
            <path d="M9.58642286,11.3303613 L10.8923657,11.3303613 L10.8923657,10.0503695 C10.8923657,9.48639424 10.90648,8.61534074 11.3135657,8.07683045 C11.7414514,7.5061144 12.3297943,7.11739835 13.3408229,7.11739835 C14.98848,7.11739835 15.6830514,7.35482222 15.6830514,7.35482222 L15.3561943,9.30589218 C15.3561943,9.30589218 14.81168,9.14711029 14.3043086,9.14711029 C13.7961943,9.14711029 13.3408229,9.33060823 13.3408229,9.84290453 L13.3408229,11.3303613 L15.4237943,11.3303613 L15.2789371,13.235744 L13.3408229,13.235744 L13.3408229,19.8566494 L10.8923657,19.8566494 L10.8923657,13.235744 L9.58642286,13.235744 L9.58642286,11.3303613 Z" id="Fill-4" fill="#FEFEFE"></path>
        </g>
    </g>
</svg>