<?xml version="1.0" encoding="UTF-8" standalone="no"?>
<svg width="26px" height="27px" viewBox="0 0 26 27" version="1.1" xmlns="http://www.w3.org/2000/svg" xmlns:xlink="http://www.w3.org/1999/xlink">
    <!-- Generator: Sketch 3.6.1 (26313) - http://www.bohemiancoding.com/sketch -->
    <title>linked</title>
    <desc>Created with Sketch.</desc>
    <defs></defs>
    <g id="Page-1" stroke="none" stroke-width="1" fill="none" fill-rule="evenodd">
        <g id="linked">
            <g id="Group-3" transform="translate(0.000000, 0.105889)">
                <path d="M12.6343657,26.1197863 C19.6120229,26.1197863 25.26888,20.4171196 25.26888,13.3812842 C25.26888,6.34694679 19.6120229,0.642782182 12.6343657,0.642782182 C5.65670857,0.642782182 -0.000148571429,6.34694679 -0.000148571429,13.3812842 C-0.000148571429,20.4171196 5.65670857,26.1197863 12.6343657,26.1197863" id="Fill-1" fill="#0073B5"></path>
                <path d="M8.42923462,7.01426683 C9.21708077,7.01426683 9.85735,7.68121394 9.85735,8.5022476 C9.85735,9.3240024 9.21708077,9.99094952 8.42923462,9.99094952 C7.63931154,9.99094952 6.99996538,9.3240024 6.99996538,8.5022476 C6.99996538,7.68121394 7.63931154,7.01426683 8.42923462,7.01426683 L8.42923462,7.01426683 Z M7.19635,19.3797716 L9.66085,19.3797716 L9.66085,11.1200361 L7.19635,11.1200361 L7.19635,19.3797716 Z" id="Fill-1" fill="#FFFFFF"></path>
            </g>
            <path d="M11.2066923,11.2259375 L13.5703462,11.2259375 L13.5703462,12.3545433 L13.6033462,12.3545433 C13.9324231,11.7051442 14.7363077,11.020649 15.9351538,11.020649 C18.4306923,11.020649 18.8915385,12.7314663 18.8915385,14.9551442 L18.8915385,19.4856731 L16.4287692,19.4856731 L16.4287692,15.4689663 C16.4287692,14.5111538 16.4118077,13.2790625 15.1481154,13.2790625 C13.8658462,13.2790625 13.669,14.3224519 13.669,15.3997356 L13.669,19.4856731 L11.2066923,19.4856731 L11.2066923,11.2259375 Z" id="Fill-4" fill="#FFFFFF"></path>
        </g>
    </g>
</svg>