<?xml version="1.0" encoding="utf-8"?>
<!-- Generator: Adobe Illustrator 16.0.0, SVG Export Plug-In . SVG Version: 6.00 Build 0)  -->
<!DOCTYPE svg PUBLIC "-//W3C//DTD SVG 1.1//EN" "http://www.w3.org/Graphics/SVG/1.1/DTD/svg11.dtd">
<svg version="1.1" id="Layer_1" xmlns="http://www.w3.org/2000/svg" xmlns:xlink="http://www.w3.org/1999/xlink" x="0px" y="0px"
	 width="157.5px" height="39.334px" viewBox="0 0 157.5 39.334" enable-background="new 0 0 157.5 39.334" xml:space="preserve">
<g>
	<g>
		<defs>
			<path id="SVGID_1_" d="M149.445,18.102h-3.539v-2.866h10.351v2.866h-3.54v8.935h-3.271V18.102L149.445,18.102z M141.119,15.236
				h3.287v11.8h-3.287V15.236z M130.128,15.236h9.44v2.866h-6.17v2.006h5.578v2.714h-5.578v4.215h-3.271L130.128,15.236
				L130.128,15.236z M122.055,27.272c-0.91,0-1.754-0.16-2.529-0.48s-1.443-0.756-2.006-1.307s-1.004-1.197-1.324-1.938
				c-0.319-0.741-0.479-1.534-0.479-2.377v-0.034c0-0.843,0.16-1.638,0.479-2.385c0.32-0.747,0.769-1.399,1.342-1.955
				c0.572-0.557,1.247-0.995,2.021-1.315c0.775-0.32,1.619-0.48,2.528-0.48c0.91,0,1.753,0.16,2.528,0.48s1.443,0.756,2.007,1.306
				c0.562,0.551,1.003,1.197,1.323,1.939c0.32,0.741,0.479,1.534,0.479,2.376v0.033c0,0.844-0.159,1.639-0.479,2.387
				c-0.32,0.746-0.769,1.398-1.342,1.955c-0.572,0.557-1.246,0.994-2.021,1.314S122.964,27.272,122.055,27.272z M122.087,24.322
				c0.45,0,0.86-0.085,1.229-0.253c0.371-0.17,0.687-0.396,0.945-0.684c0.258-0.287,0.461-0.621,0.605-1.003
				c0.146-0.383,0.22-0.786,0.22-1.214v-0.034c0-0.427-0.073-0.831-0.22-1.214c-0.146-0.382-0.354-0.719-0.623-1.011
				c-0.271-0.292-0.59-0.525-0.961-0.699s-0.781-0.261-1.23-0.261s-0.857,0.084-1.223,0.252c-0.365,0.169-0.68,0.396-0.943,0.683
				c-0.265,0.286-0.467,0.621-0.607,1.003c-0.139,0.382-0.211,0.786-0.211,1.214v0.032c0,0.429,0.074,0.832,0.221,1.214
				c0.146,0.383,0.352,0.721,0.615,1.012c0.264,0.293,0.58,0.525,0.951,0.699C121.229,24.235,121.639,24.322,122.087,24.322z
				 M103.999,15.236h5.58c0.909,0,1.68,0.112,2.31,0.337c0.629,0.225,1.141,0.54,1.534,0.944c0.696,0.674,1.045,1.59,1.045,2.748
				v0.034c0,0.91-0.219,1.663-0.657,2.259c-0.438,0.596-1.027,1.051-1.771,1.365l2.815,4.113h-3.776l-2.377-3.574h-0.033h-1.399
				v3.574h-3.271V15.236z M109.428,20.899c0.562,0,0.994-0.127,1.299-0.379c0.303-0.254,0.455-0.594,0.455-1.021v-0.034
				c0-0.472-0.158-0.823-0.473-1.053s-0.748-0.346-1.299-0.346h-2.141v2.833H109.428z M92.654,15.236h5.058
				c0.741,0,1.416,0.093,2.022,0.278c0.606,0.186,1.123,0.455,1.551,0.809c0.428,0.354,0.756,0.79,0.986,1.307
				c0.229,0.517,0.346,1.101,0.346,1.753v0.034c0,0.696-0.127,1.309-0.379,1.837c-0.254,0.528-0.604,0.974-1.055,1.332
				c-0.449,0.358-0.985,0.629-1.609,0.81c-0.623,0.18-1.301,0.271-2.031,0.271h-1.618v3.371h-3.271V15.236z M97.477,21.103
				c0.584,0,1.041-0.138,1.373-0.412c0.332-0.275,0.498-0.649,0.498-1.122v-0.034c0-0.505-0.166-0.89-0.498-1.154
				c-0.332-0.264-0.795-0.396-1.391-0.396h-1.534v3.12h1.552V21.103z M81.411,15.236H90.9v2.782h-6.254v1.787h5.664v2.579h-5.664
				v1.871h6.338v2.781h-9.573V15.236z M71.027,15.236h3.271v8.934h5.714v2.866h-8.985V15.236z M59.783,15.236h9.491v2.782H63.02
				v1.787h5.664v2.579H63.02v1.871h6.338v2.781h-9.575V15.236z M51.54,18.102H48v-2.866h10.35v2.866h-3.54v8.935h-3.27V18.102z"/>
		</defs>
		<clipPath id="SVGID_2_">
			<use xlink:href="#SVGID_1_"  overflow="visible"/>
		</clipPath>
		<g clip-path="url(#SVGID_2_)">
			<g>
				<defs>
					<rect id="SVGID_3_" x="-380" y="-281" width="600" height="800"/>
				</defs>
				<clipPath id="SVGID_4_">
					<use xlink:href="#SVGID_3_"  overflow="visible"/>
				</clipPath>
				<rect x="43" y="10" clip-path="url(#SVGID_4_)" fill="#FFFFFF" width="118.257" height="22.272"/>
			</g>
		</g>
		<g clip-path="url(#SVGID_2_)">
			<g>
				<defs>
					<path id="SVGID_5_" d="M12.724,37.79c0.689,0.251,1.397,0.463,2.121,0.635v-19.17h8.482V38.5
						c0.723-0.157,1.431-0.356,2.121-0.593V12.836h8.482v19.228c2.851-3.395,4.57-7.791,4.57-12.596C38.5,8.716,29.881,0,19.253,0
						C8.615,0,0,8.716,0,19.469c0,4.616,1.587,8.857,4.241,12.193v-5.989h8.482L12.724,37.79L12.724,37.79z"/>
				</defs>
				<clipPath id="SVGID_6_">
					<use xlink:href="#SVGID_5_"  overflow="visible"/>
				</clipPath>
				<g clip-path="url(#SVGID_6_)">
					<g>
						<defs>
							<rect id="SVGID_7_" x="-380" y="-281" width="600" height="800"/>
						</defs>
						<clipPath id="SVGID_8_">
							<use xlink:href="#SVGID_7_"  overflow="visible"/>
						</clipPath>
						<rect x="-5" y="-5" clip-path="url(#SVGID_8_)" fill="#FFFFFF" width="48.5" height="48.5"/>
					</g>
				</g>
			</g>
		</g>
	</g>
</g>
</svg>
