<?xml version="1.0" encoding="UTF-8" standalone="no"?>
<svg width="568px" height="321px" viewBox="0 0 568 321" version="1.1" xmlns="http://www.w3.org/2000/svg" xmlns:xlink="http://www.w3.org/1999/xlink">
    <!-- Generator: Sketch 3.6.1 (26313) - http://www.bohemiancoding.com/sketch -->
    <title>Fill 1</title>
    <desc>Created with Sketch.</desc>
    <defs></defs>
    <g id="Page-1" stroke="none" stroke-width="1" fill="none" fill-rule="evenodd">
        <path d="M513.56181,12.68314 C515.653331,6.47797356 521.293739,3.0283988 526.702021,0 C527.406773,3.27009637 528.080415,6.54019274 528.64637,9.83541608 C531.669983,11.0833892 534.679238,12.3995641 537.806948,13.4010535 C536.343601,15.6947874 534.619411,17.8078464 532.842575,19.8574897 C530.197064,22.9026398 529.80939,22.8858885 525.967356,22.3486498 C523.716697,22.0375539 523.702339,25.9011255 523.216551,27.8083826 C523.355347,29.9274242 522.490261,30.4000507 520.617704,29.2142967 C518.526182,28.7297051 516.429874,28.2618647 514.338353,27.7677009 C515.430778,29.6570101 517.201631,30.9289137 519.238113,31.6288794 C522.777427,32.8493325 522.600342,32.900783 523.847118,36.7236728 C525.062785,40.407766 525.675405,40.723648 522.910241,43.3811248 C521.327241,44.9102807 519.849536,46.6560072 519.382892,48.8671811 C522.412487,46.7672838 525.611989,43.4792396 529.316423,43.8788782 C533.726806,44.3622733 538.169494,44.3263776 542.594235,44.3969725 C542.576287,47.2171763 540.793468,49.4666389 539.14107,51.5761083 C537.047156,54.2551225 538.650496,60.17432 539.016632,63.4839016 C539.885308,71.2445474 541.462324,79.0135689 544.765923,86.1352717 C540.568522,86.4188475 538.500931,85.5800851 537.128519,90.0060224 C536.019343,93.5872146 535.838668,97.3981392 536.561368,101.07266 C535.29425,100.054419 534.027133,99.0337857 532.758819,98.0155449 C533.22307,99.7421271 533.696892,101.460334 534.181484,103.184523 C534.755815,105.236559 531.532383,104.879995 531.242825,107.36278 C530.845579,110.844661 534.15875,114.17219 535.838668,116.902655 C536.95981,113.839557 537.775838,110.680737 538.881425,107.615246 C538.991505,109.725912 539.106371,111.840167 539.202093,113.950833 C539.342086,116.889493 538.310684,116.542501 535.863795,117.614586 C536.865284,119.533808 538.170691,121.277142 539.703436,122.808691 C540.994484,121.706693 542.298694,120.617858 543.6041,119.536201 C545.601096,124.663301 551.158944,125.6959 555.863671,127.007288 C554.054529,128.816431 550.015068,131.058714 552.028816,133.314159 C554.417075,135.993173 557.672813,137.643178 560.466693,139.834011 C557.39163,145.001792 558.260306,151.693944 564.226168,154.204248 C563.502271,155.583839 562.781965,156.964626 562.056872,158.345413 C560.97043,160.4142 563.452017,162.449485 564.439149,164.496736 C566.665877,169.121296 567.647026,174.241216 568,179.336009 C559.452042,173.45869 550.515215,168.137754 542.35852,161.716017 C538.890997,158.983159 534.924525,156.09954 532.651132,152.234772 C531.44743,150.192308 530.627812,147.948828 529.938615,145.686203 C529.053188,142.742758 529.164465,142.27731 526.180337,141.395473 C528.301772,137.111922 529.999638,134.990487 528.551845,130.288154 C527.09807,125.575051 525.415759,120.918185 524.44179,116.077054 C523.616189,111.938282 525.299697,104.72684 522.635041,101.978428 C521.03529,100.330816 519.410412,98.704742 517.790321,97.0798642 C515.591112,94.8758695 516.535168,94.0371072 517.211204,91.2216894 C515.703585,92.5318817 514.264168,93.9318132 512.861844,95.3556751 C517.211204,99.103184 517.09873,104.935035 517.996122,110.135123 C518.59917,113.656489 520.129522,114.299022 516.764901,116.201492 C515.453512,114.657978 512.668007,109.786935 510.824166,110.872181 C508.129597,112.45518 507.191523,113.31548 505.699459,116.145256 C503.682122,119.972932 504.663271,121.840704 505.53075,126.005799 C506.295328,129.68032 506.925895,133.377575 507.615092,137.070044 C508.179851,140.127159 508.335399,139.240536 510.971338,138.867221 C512.504084,138.649454 514.051187,138.437669 515.586326,138.212723 C513.768808,139.965629 511.918984,141.687425 510.158899,143.507336 C508.726662,146.647011 506.824191,149.564133 504.523278,152.13546 C503.81374,150.398109 503.103005,148.658366 502.373126,146.926997 C500.383309,147.969169 498.388706,149.002964 496.395299,150.03317 C493.813203,151.362507 494.415054,151.269178 494.624446,153.845291 C494.823069,156.331665 495.423723,156.317307 492.979227,157.579638 C491.122224,158.53566 489.285562,159.523988 487.433345,160.490778 C487.879648,163.419865 483.666691,163.90685 481.408853,165.659756 C478.831543,167.657949 476.652676,170.322604 475.89408,173.536464 C474.277578,180.339892 474.026309,188.063446 473.154044,195.018832 C472.091531,203.502177 471.096025,212.125516 467.705079,220.057264 C469.600371,219.396784 472.740047,219.504471 474.126816,217.84968 C475.087624,216.707001 473.886315,215.133574 473.152847,214.276864 C475.188132,212.789586 477.176753,211.244875 479.251523,209.805458 C479.375961,212.39593 479.52792,214.984008 479.712184,217.57089 C477.881504,216.382743 475.975444,215.517658 473.998789,214.596335 C474.715506,216.43539 476.013733,217.972922 477.265295,219.468575 C479.263488,221.855638 482.076513,220.875686 485.073802,221.45241 C485.1779,218.732714 485.223367,216.008232 485.241315,213.284946 C488.404921,212.220041 491.750398,212.58857 494.911611,213.438101 C498.861332,214.495827 499.802996,216.253519 502.308514,219.31901 C504.849928,222.425183 504.33303,223.470944 505.049748,227.186146 C506.02611,232.301281 509.358426,236.493896 512.001544,240.833684 C515.613846,246.789973 515.280016,252.282012 515.576754,259.083047 C516.140316,271.908573 515.168739,284.894433 512.578268,297.490227 C511.640194,302.064533 509.046133,308.039967 504.080564,309.467419 C501.595387,310.17576 498.978592,309.633735 496.444357,309.756977 C495.625935,313.38603 494.511973,316.93372 493.406386,320.479016 C490.423455,316.29358 493.206566,310.546682 490.772839,305.856313 C489.564352,303.533863 488.139293,301.334654 486.736969,299.125873 C487.756406,296.798637 489.597854,295.049321 491.880819,293.978433 C494.470094,292.755587 496.346242,293.809723 496.036342,290.477408 C495.768321,287.626094 495.395006,284.789139 494.955883,281.95697 C493.969948,275.58429 492.660952,269.27742 491.511094,262.937046 C488.854814,266.025271 486.702269,269.501169 484.182393,272.699474 C482.764513,274.512206 481.21741,276.241181 479.429805,277.708118 C476.404996,280.201671 476.311667,279.441879 473.950928,276.649196 C472.665862,275.134398 471.389173,273.614814 470.11368,272.092837 C467.216898,271.732684 464.304562,271.494576 461.381457,271.556795 C456.86937,271.656107 452.476936,273.022536 449.623229,268.476946 C445.718976,262.245456 441.077665,255.236226 433.947586,252.417219 C425.488171,249.072938 415.653952,254.569763 409.448785,260.237691 C417.7706,266.910698 407.858607,277.675812 412.59205,285.705675 C410.35216,287.647632 408.114663,289.588391 406.00639,291.67393 C403.085678,290.155543 399.803616,289.818124 396.567023,289.682917 C393.351966,289.553692 390.07828,289.558478 386.974501,288.598867 C384.945198,291.007467 382.767527,293.304791 380.373285,295.35922 C375.498652,299.537477 371.172026,301.946077 364.672515,301.159962 C357.750632,300.321199 352.20116,295.97184 345.625071,294.812409 C341.287677,294.045438 332.469305,298.786061 329.342791,296.266184 C327.410407,294.711901 326.405328,292.379879 325.370336,290.203404 C323.853145,286.99792 321.574966,286.496577 318.333586,285.282106 C315.780207,284.326085 313.213666,283.420317 310.724899,282.297979 C307.580437,280.883689 305.242432,285.254586 303.353123,287.85822 C303.033651,291.487273 306.321696,295.299394 303.377053,297.737907 C300.229002,300.343933 299.728856,300.297269 295.835371,299.579355 C291.581733,298.794437 286.877006,297.745086 284.286535,293.919803 C282.788488,291.70863 280.011359,292.348769 277.357472,292.199204 C273.86243,290.553985 271.994658,290.759787 268.442182,292.059211 C262.808953,294.123212 257.453318,296.88 251.750691,298.771703 C250.487163,299.196468 249.199705,299.56739 247.901478,299.884469 C246.464454,298.238054 245.00709,296.614372 243.573655,294.969154 C241.421111,295.419046 239.041228,295.277857 237.327807,293.745111 C235.967361,292.529444 235.290129,290.749018 234.963479,288.99372 C233.43193,286.153175 232.15165,283.170244 230.431051,280.430207 C227.842972,279.129587 224.889954,280.348844 222.276749,280.814291 C219.415863,281.32042 218.183445,275.778127 217.097003,273.422174 C215.290253,275.169097 213.508631,276.926789 211.734188,278.698839 C211.296261,268.047394 211.357283,256.331045 204.4354,247.512673 C205.975325,246.422641 207.515249,245.332609 209.052781,244.240183 C202.538912,245.397221 195.953251,247.2279 189.282637,246.245555 C189.872523,244.702041 190.445657,243.147758 191.034346,241.601851 C188.192605,239.89202 185.343685,238.1786 182.339216,236.753541 C183.030806,233.88787 183.731969,231.02818 184.428345,228.161312 C181.214485,226.46584 178.213606,224.082367 174.566605,224.173302 C168.362635,224.327654 161.846373,222.574748 155.83265,221.211909 C149.915846,219.868214 144.337657,217.424915 138.725966,215.185024 C139.088513,218.504178 139.55396,221.812563 140.098378,225.105393 C137.969764,223.537949 135.830381,221.995631 133.68382,220.456903 C133.512717,222.431165 133.379903,224.397052 133.237517,226.370118 C131.13403,226.146368 129.032936,225.902278 126.92945,225.652204 C127.835217,229.021612 128.790042,232.371875 129.77837,235.716156 C125.253121,236.413729 123.964466,236.106223 120.161918,233.502589 C118.67105,232.483152 117.226848,231.315346 116.225358,229.78619 C115.251389,228.288144 115.501462,226.093721 114.076403,225.093428 C110.06566,222.27801 101.164728,223.427869 100.869187,216.874514 C99.7121491,217.29928 98.567077,217.762334 97.4100396,218.182313 C98.5754526,214.458735 98.2631602,210.470725 96.6981086,206.91466 C95.0397282,203.151596 91.9802198,202.385822 89.0475429,199.777402 C86.4187826,197.4382 81.0595577,198.174062 77.5992143,198.129791 C74.3135631,198.085519 72.2088798,201.287414 69.897198,203.498588 C70.1759878,200.592234 70.4380263,197.685881 70.7192091,194.78192 C68.8837434,195.206686 67.0554568,195.684098 65.2355458,196.17228 C62.9334363,196.790882 63.0040311,197.645199 61.3612055,199.181534 C60.1957925,200.27037 58.8078262,201.110328 57.3241382,201.684659 C54.6188005,202.729224 55.1045887,206.215891 54.6188005,208.964303 C56.9328753,210.789 57.6950602,213.915514 56.8646735,216.69025 C56.4518732,218.056679 55.6717404,219.311831 54.59487,220.263066 C52.6361625,221.981273 55.2302235,224.303723 56.4518732,226.456267 C50.3747347,224.934291 44.0654708,222.696793 37.7203113,223.930408 C34.1857834,224.621998 33.4858177,224.787118 33.981178,228.185243 C34.5040584,231.735325 33.0801965,232.723653 30.8056069,235.445742 C28.6542592,238.019462 28.1708641,239.367943 27.6443941,242.714617 C27.4146618,244.18275 27.1909121,245.65208 26.9695554,247.123803 C26.4753915,250.403472 25.6055196,249.250024 22.7207035,249.08969 C19.4015497,248.910211 18.731497,249.381641 18.1272531,245.9548 C17.6773606,243.389456 17.5481361,240.782233 17.355496,238.184582 C17.0264522,233.750269 16.5167336,228.982127 13.575681,225.414096 C11.7138917,223.161044 11.3082706,222.490991 10.4276299,219.606175 C9.53263096,216.655551 8.19611518,213.870046 6.78780803,211.132402 C4.05255728,205.835396 1.3735431,201.054092 0.699900852,195.047548 C-0.0455327516,188.504962 -0.0957867023,181.904944 0.0932638744,175.325266 C0.973904536,176.365044 1.8389904,177.416787 2.689718,178.480496 C4.52039763,180.761068 5.44530963,179.936664 8.21406302,179.718897 C12.7979412,179.353957 12.5502611,179.225929 13.1162163,174.802385 C15.8071957,176.680926 18.5280882,178.528357 21.2370154,180.390146 C20.1685207,178.021031 19.0988295,175.65072 18.0303347,173.280408 C20.9211334,174.091651 23.7868051,175.028528 26.607009,176.064717 C29.7490775,177.221754 30.9623514,175.184076 33.5743603,173.364165 C35.7819446,171.820651 38.7660721,171.114702 37.9787602,168.300481 C37.3410136,166.01273 36.9042828,163.678314 36.3658476,161.370222 C35.8321985,159.083667 35.1908624,156.810274 34.1451016,154.707984 C33.2405305,152.88927 30.8618435,150.938938 31.1478124,148.755284 C31.4218161,146.668548 33.2680505,145.032902 34.7230221,143.696386 C33.9357102,141.931515 33.1352365,140.163055 32.3347629,138.401774 C34.4334636,137.96265 36.0176596,136.565111 37.2632396,134.899552 C39.3571542,132.106868 38.7325694,131.995591 36.4184946,129.560668 C34.695502,127.74315 32.9677233,125.935204 31.3655795,124.008803 C33.2584784,121.777288 35.3667512,119.737217 37.4199841,117.66125 C39.2183576,119.62953 40.0810504,123.268155 43.3702912,123.123376 C44.4770746,120.936133 44.8156905,118.486851 45.0657637,116.077054 C45.4199344,112.626283 46.0229819,111.931103 48.6385803,109.605063 C50.233545,108.182398 51.8273132,106.748964 53.2667299,105.165964 C52.6828269,102.415159 52.0510629,99.6763183 51.3499006,96.9566224 C50.2431172,92.6276035 57.9164169,87.1451368 61.0309653,84.2974129 C62.5002951,86.1316821 62.4189316,87.2683786 64.5152392,85.6028191 C66.4548024,84.0581084 68.5283761,82.6701421 70.7658735,81.5932717 C73.2917328,80.3776047 75.3174456,79.0949325 77.534602,81.1026974 C79.5315983,82.9106431 81.444838,84.805935 83.502857,86.5361067 C82.5384597,83.5890715 81.4185145,81.344395 82.1986473,78.3171927 C82.793319,75.9947423 82.1184803,75.8906448 84.9817589,76.4099357 C87.1833606,76.8047881 89.3765866,77.2319467 91.5805813,77.6112444 C95.0193873,78.2095057 100.657402,79.865493 104.031596,78.5588903 C106.784794,77.4927886 106.328919,73.54905 107.162896,71.2804431 C113.460194,65.7800285 121.066489,61.9296187 126.972524,55.9637568 C129.111907,53.7992474 131.956041,54.2491399 134.51301,52.6003317 C135.53484,51.9410477 136.341297,51.0221183 136.798368,49.8854218 C138.042752,46.7541221 137.749604,46.7828386 141.214733,45.2046253 C144.793533,43.5821406 149.950545,47.9721821 153.346276,49.7801278 C153.116544,51.5820909 152.149754,53.2069687 152.09591,55.0472205 C152.026512,57.5156467 153.67891,60.2102157 154.06778,62.6822314 C154.709116,66.7157092 154.529637,70.8221749 154.346569,74.8807797 C154.207773,78.0970326 154.971154,82.3040062 152.541017,84.8777264 C149.422879,88.1813254 143.155493,87.8307442 140.182134,84.5163765 C135.165115,78.9357949 135.326645,68.9125248 135.032301,61.9296187 C134.04158,64.2604448 133.186066,66.6463109 132.494476,69.0776449 C132.143895,70.295705 131.837585,71.5341059 131.575547,72.7772929 C131.02395,75.373747 129.768798,75.6250168 127.653346,77.1338318 C124.094887,79.6644772 122.368305,80.1873576 122.41497,84.6539766 C122.452062,87.7278433 122.709314,90.8663222 124.146338,93.6458443 C126.533401,90.3422452 126.073936,84.7664498 130.605167,83.2636173 C130.899512,87.7745077 131.6605,92.2686467 133.048466,96.5773247 C134.487883,94.9213374 135.814827,93.1815935 137.260226,91.5339818 C139.497723,88.9829955 142.527319,89.9892711 145.70289,90.2656678 C147.672366,90.4391636 150.256855,89.5848464 150.469836,91.9084934 C150.65769,93.9090792 150.840758,95.9096651 151.025022,97.9102509 C155.375579,93.7284043 159.699812,89.5250203 163.906785,85.2079666 C166.32735,82.7263787 166.85382,84.8777264 169.007561,86.9142079 C168.636639,89.1361504 168.253752,91.3592895 167.890009,93.581232 C165.549611,92.9363063 163.215195,92.3033459 160.860439,91.7266219 C160.274142,94.1759038 159.693829,96.6311682 159.130267,99.0876292 C163.869693,100.641912 168.731164,97.8982857 173.500504,99.1319005 C179.357482,100.211164 185.184547,101.52016 191.120496,102.108849 C188.687966,103.145037 186.427734,104.582061 184.492957,106.390007 C187.684083,108.559302 190.5342,106.541965 193.264665,109.471053 C195.036715,111.372327 200.186548,110.040597 202.744713,109.914963 C201.336406,111.749232 199.733066,113.559571 198.547312,115.546995 C200.293039,115.022918 202.042355,114.500037 203.810815,114.063307 C206.386928,113.426757 205.733627,112.714826 206.220612,110.303832 C206.958866,106.626918 204.405487,103.421434 206.078226,99.5351287 C207.606185,102.165085 208.770401,105.018792 209.410541,107.994544 C211.759315,109.770183 213.652214,112.053149 215.174191,114.553881 C218.230109,119.575686 219.872935,125.280706 222.518447,130.511903 C225.691625,126.472443 224.477154,121.033051 223.403873,116.476693 C224.805001,115.116246 227.458889,113.651703 227.495981,111.652313 C227.535466,109.573954 226.889344,108.324784 228.930611,107.612853 C236.296405,105.035543 239.785465,95.6248927 248.051043,95.0194522 C246.164127,97.1899443 244.328661,97.7858126 245.988238,100.176465 C247.550897,102.433107 246.941867,105.041526 245.565866,107.203642 C244.420793,109.005605 241.276332,110.937989 241.500082,113.01276 C241.879379,116.671726 241.177021,118.080033 239.371468,121.330985 C237.972733,123.850862 236.61468,126.495177 236.173163,129.37401 C235.908731,131.117344 236.016418,132.892983 236.546478,134.58008 C235.272181,136.110433 233.941648,137.595317 232.569237,139.038324 C230.416693,141.302144 228.534562,143.163934 225.764613,144.585403 C223.490023,145.754405 223.747275,146.381383 221.655754,144.466947 C220.123008,143.064622 218.544795,141.701783 216.884021,140.444238 C217.660565,143.927315 220.400602,146.286858 223.144228,148.299409 C225.409245,149.960182 228.419696,147.458253 230.756505,146.151651 C235.655069,143.41281 240.108526,139.440355 239.713673,133.33809 C241.016687,133.52714 242.322093,133.697047 243.625106,133.878918 C247.000496,134.338383 246.046868,135.347051 245.684321,138.59561 C245.436641,140.798408 245.184175,143.001207 245.095632,145.21597 C246.71692,147.09451 248.479398,148.854595 250.202391,150.638611 C249.028602,148.425044 247.724392,146.282072 246.655898,144.015858 C247.236211,141.650332 248.342995,139.461893 248.978348,137.111922 C247.153651,132.766152 242.554218,131.111361 238.404678,129.792793 C240.913786,125.02824 244.782143,121.272355 244.634971,115.850911 C244.487799,110.32537 251.304388,107.016985 255.262485,103.817483 C253.902039,106.673583 252.389634,109.46507 250.746809,112.172801 C253.234379,112.232627 255.714771,112.264933 258.196359,112.319973 C257.629207,110.278705 257.076413,108.238634 256.510458,106.202153 C259.081785,108.304443 261.361161,110.74176 263.583104,113.203007 C265.444893,115.270598 269.553751,118.008242 268.047329,120.410859 C264.843042,125.5236 265.314472,132.598639 268.409876,137.643178 C267.54479,131.065893 270.588744,124.675266 269.948604,118.358823 C269.553751,114.504823 265.032092,111.604453 266.637826,107.468074 C263.230129,108.483921 259.388095,108.939797 260.771275,104.048412 C261.31689,105.291599 261.855325,106.537179 262.399743,107.785152 C263.948043,106.50248 265.487968,105.205449 267.039857,103.92876 C269.139755,102.202178 270.143637,102.845907 272.735305,103.231187 C276.871684,103.845003 280.999687,104.611974 285.036754,105.712775 C284.786681,102.562331 284.578486,99.4011181 284.382257,96.2434949 C287.806704,93.9557436 291.460884,91.9527647 295.35078,90.5971046 C299.210762,89.247427 303.344747,88.55823 307.427283,89.1086304 C310.60764,87.8630503 313.618091,85.1589092 317.278253,86.2202248 C316.774517,84.6240636 316.25403,83.0350815 315.717988,81.4508855 C317.669516,79.1595447 319.630617,76.8837586 321.624024,74.6330995 C323.284797,75.6968082 324.56388,77.246305 325.029327,79.1858682 C325.598872,81.5860926 326.994017,80.7473302 329.371508,80.7975842 C328.644022,82.2250357 327.875854,83.6357359 327.136403,85.0607943 C327.976362,85.0260952 328.821107,84.989003 329.665852,84.9531073 C328.371215,81.106287 333.268582,82.056326 335.827944,81.8313797 C337.753149,83.1116589 339.702284,84.3692042 341.670564,85.5848712 C342.293952,88.4050751 342.944861,91.2169033 343.696277,94.0059976 C337.791438,100.961384 332.056505,108.065139 326.353878,115.188038 C329.150151,113.380092 331.912922,111.514713 334.694837,109.681641 C338.407647,107.226376 337.96613,106.577861 337.833316,102.338581 C339.640065,103.523139 341.449207,104.69932 343.25476,105.883878 C343.7226,101.755875 343.362447,102.216536 339.456997,100.859679 C341.020852,99.657174 342.597869,98.4809922 344.201209,97.3383131 C344.343595,100.265007 344.465641,103.194095 344.605634,106.11361 C347.255932,105.299975 349.900247,104.464802 352.573278,103.748085 C353.91817,103.386735 355.27383,103.06487 356.637866,102.782491 C357.134422,104.069949 357.928914,105.289206 359.163725,105.984386 C362.50322,107.865319 366.863348,105.471077 370.054474,104.34515 C369.242035,102.20816 368.437972,100.071171 367.65066,97.9270022 C370.725723,97.6613742 377.798368,95.2599533 380.002363,96.8788484 C383.646971,99.5590591 385.766013,103.916795 384.443855,108.41572 C385.223988,107.274237 385.981387,106.11361 386.748358,104.951787 C386.882368,110.031025 391.192243,112.461163 395.644504,113.415988 C395.107265,109.786935 394.511397,106.166257 393.872454,102.550366 C395.344176,103.177344 396.820685,103.798339 398.299587,104.418138 C400.447345,105.31553 399.878997,103.90124 400.952278,102.285934 C402.776975,99.5291461 405.497868,99.3724016 408.182864,101.113342 C408.88283,98.7813194 410.274386,96.2877662 409.779026,93.766693 C409.434427,92.0209665 408.212777,91.6153453 408.182864,89.7882553 C408.158934,88.2961915 408.140986,86.8017348 408.096715,85.3132606 C415.737708,82.4775019 422.847446,78.7946053 430.269476,75.4993819 C430.390324,76.6564193 430.463312,77.8206358 430.549462,78.9800663 C433.238048,78.5206016 440.412398,79.4957675 441.687891,77.3934773 C443.147649,74.9908598 444.338189,72.4207292 446.038448,70.1736597 C447.724348,67.9493241 449.95347,66.227528 452.789228,65.8769469 C455.727888,64.7964869 457.961796,67.4802872 460.143056,68.92449 C464.635999,71.909814 467.080495,61.6639907 468.884851,59.3666672 C469.66618,58.3759465 470.672456,57.6185476 471.864192,57.1818169 C472.366732,55.9864907 472.893202,54.8007368 473.423261,53.619769 C472.746029,50.8151199 472.586892,47.7340741 475.617684,46.2994435 C475.537517,48.4543807 475.440598,50.6164971 475.322143,52.7738275 C478.660441,51.7555867 482.003525,50.7457216 485.344216,49.7561974 C482.427094,46.8582195 478.269178,46.1103929 474.45586,45.0706147 C479.925165,39.5438767 482.15309,31.341714 488.610723,26.7135644 C491.709717,24.4916219 509.772422,17.4082079 508.197799,13.6511268 C512.488529,13.715739 517.385896,16.0657095 521.261433,13.1677316 C518.691302,13.001415 516.129547,12.8542427 513.56181,12.68314" id="Fill-1" fill="#EBEFF3"></path>
    </g>
</svg>