<?xml version="1.0" encoding="UTF-8" standalone="no"?><svg width="26" height="27" xmlns="http://www.w3.org/2000/svg" viewBox="0 0 26 27"><g fill="none" fill-rule="evenodd"><path d="M12.634 26.226c6.978 0 12.635-5.703 12.635-12.739C25.269 6.453 19.612.75 12.634.75 5.657.749 0 6.453 0 13.487c0 7.036 5.657 12.739 12.634 12.739" fill="#547BBC"/><path d="M9.586 11.33h1.306v-1.28c0-.564.014-1.435.422-1.973.427-.57 1.016-.96 2.027-.96 1.647 0 2.342.238 2.342.238l-.327 1.95s-.544-.158-1.052-.158-.963.184-.963.696v1.487h2.083l-.145 1.906H13.34v6.62h-2.449v-6.62H9.586V11.33z" fill="#FEFEFE"/></g></svg>