<?xml version="1.0" encoding="UTF-8" standalone="no"?><svg width="26" height="27" xmlns="http://www.w3.org/2000/svg" viewBox="0 0 26 27"><g fill="none" fill-rule="evenodd"><path d="M12.634 26.226c6.978 0 12.635-5.703 12.635-12.739C25.269 6.453 19.612.75 12.634.75 5.657.749 0 6.453 0 13.487c0 7.036 5.657 12.739 12.634 12.739" fill="#0073B5"/><path d="M8.43 7.12c.787 0 1.427.667 1.427 1.488 0 .822-.64 1.489-1.428 1.489C7.64 10.097 7 9.43 7 8.608c0-.82.64-1.488 1.43-1.488zM7.195 19.486h2.465v-8.26H7.196v8.26zM11.207 11.226h2.363v1.129h.033c.33-.65 1.133-1.334 2.332-1.334 2.496 0 2.957 1.71 2.957 3.934v4.53h-2.463V15.47c0-.958-.017-2.19-1.28-2.19-1.283 0-1.48 1.043-1.48 2.12v4.087h-2.462v-8.26z" fill="#FFF"/></g></svg>