<?xml version="1.0" encoding="UTF-8" standalone="no"?><!DOCTYPE svg PUBLIC "-//W3C//DTD SVG 1.1//EN" "http://www.w3.org/Graphics/SVG/1.1/DTD/svg11.dtd"><svg viewBox="0 0 568 436" xmlns="http://www.w3.org/2000/svg" xmlns:xlink="http://www.w3.org/1999/xlink"><style>:root>svg{display:none}:root>svg:target{display:block}</style><svg viewBox="0 0 18 18" id="close" xmlns="http://www.w3.org/2000/svg"><g fill="#FFF" fill-rule="evenodd"><path d="M.793 2.207L16.045 17.46l1.414-1.414L2.207.793.793 2.207z"/><path d="M16.045.793L.793 16.045l1.414 1.414L17.46 2.207 16.045.793z"/></g></svg><svg viewBox="0 0 26 27" id="fb" xmlns="http://www.w3.org/2000/svg"><g fill="none" fill-rule="evenodd"><path d="M12.634 26.226c6.978 0 12.635-5.703 12.635-12.739C25.269 6.453 19.612.75 12.634.75 5.657.749 0 6.453 0 13.487c0 7.036 5.657 12.739 12.634 12.739" fill="#547BBC"/><path d="M9.586 11.33h1.306v-1.28c0-.564.014-1.435.422-1.973.427-.57 1.016-.96 2.027-.96 1.647 0 2.342.238 2.342.238l-.327 1.95s-.544-.158-1.052-.158-.963.184-.963.696v1.487h2.083l-.145 1.906H13.34v6.62h-2.449v-6.62H9.586V11.33z" fill="#FEFEFE"/></g></svg><svg viewBox="0 0 184 184.031" id="green-circle" xmlns="http://www.w3.org/2000/svg"><defs><style>.ccls-1{fill:#b1cd51}</style></defs><circle id="cEllipse_1_copy" data-name="Ellipse 1 copy" class="ccls-1" cx="92" cy="92.016" r="92"/></svg><svg id="green-circle-rounds" data-name="Группа 2" viewBox="0 0 385 384" xmlns="http://www.w3.org/2000/svg"><defs><style>.dcls-1,.dcls-2,.dcls-3{fill:#fff;stroke:#000;stroke-linejoin:round;stroke-width:1px}.dcls-1{opacity:.05}.dcls-2{opacity:.07}.dcls-3{opacity:.08}</style></defs><circle id="dEllipse_1_copy_6" data-name="Ellipse 1 copy 6" class="dcls-1" cx="192.563" cy="192.422" r="189.093"/><circle id="dEllipse_1_copy_4" data-name="Ellipse 1 copy 4" class="dcls-2" cx="192.547" cy="192.453" r="153.328"/><circle id="dEllipse_1_copy_4-2" data-name="Ellipse 1 copy 4" class="dcls-3" cx="192.579" cy="192.453" r="120.234"/></svg><svg viewBox="0 0 206.719 137.5" id="green-square" xmlns="http://www.w3.org/2000/svg"><defs><style>.ecls-1{fill:#b1cd51;fill-rule:evenodd}</style></defs><path id="eRectangle_16_copy" data-name="Rectangle 16 copy" class="ecls-1" d="M639.125 472.086h206.719V609.6H639.125V472.086z" transform="translate(-639.125 -472.094)"/></svg><svg viewBox="0 0 250.188 250.187" id="green-triangle" xmlns="http://www.w3.org/2000/svg"><defs><style>.fcls-1{fill:#b1cd51;fill-rule:evenodd}</style></defs><path id="fPolygon_4" data-name="Polygon 4" class="fcls-1" d="M754.776 623.382q-183.15-49.074-49.076-183.151t183.152 49.075q49.075 183.152-134.076 134.076z" transform="translate(-649.031 -383.563)"/></svg><svg id="green-triangle-bg" viewBox="0 0 358 358" xmlns="http://www.w3.org/2000/svg"><defs><style>.gcls-1{fill:#fff;fill-opacity:0;stroke:#f5f5f5;stroke-linejoin:round;stroke-width:1px;fill-rule:evenodd}</style></defs><path id="gPolygon_4_copy_2" data-name="Polygon 4 copy 2" class="gcls-1" d="M746.9 670.069q-257.685-69.046-69.046-257.685t257.685 69.046q69.047 257.685-188.639 188.639z" transform="translate(-595.5 -329.5)"/><path id="gPolygon_4_copy" data-name="Polygon 4 copy" class="gcls-1" d="M751.182 644.7Q534 586.5 692.99 427.518t217.178 58.193Q968.361 702.889 751.182 644.7z" transform="translate(-595.5 -329.5)"/></svg><svg id="left" data-name="Слой 1" viewBox="0 0 33 33" xmlns="http://www.w3.org/2000/svg"><defs><style>.hcls-1,.hcls-2{fill:#fff;stroke:#008aff}.hcls-2{fill:none}</style></defs><g id="hPage-1"><g id="hleft"><circle id="hOval-1" class="hcls-1" cx="16.5" cy="16.5" r="16"/><path id="hPath-1" class="hcls-2" d="M20 11l-6 6 6 6" transform="translate(-.5 -.5)"/></g></g></svg><svg viewBox="0 0 26 27" id="linked" xmlns="http://www.w3.org/2000/svg"><g fill="none" fill-rule="evenodd"><path d="M12.634 26.226c6.978 0 12.635-5.703 12.635-12.739C25.269 6.453 19.612.75 12.634.75 5.657.749 0 6.453 0 13.487c0 7.036 5.657 12.739 12.634 12.739" fill="#0073B5"/><path d="M8.43 7.12c.787 0 1.427.667 1.427 1.488 0 .822-.64 1.489-1.428 1.489C7.64 10.097 7 9.43 7 8.608c0-.82.64-1.488 1.43-1.488zM7.195 19.486h2.465v-8.26H7.196v8.26zM11.207 11.226h2.363v1.129h.033c.33-.65 1.133-1.334 2.332-1.334 2.496 0 2.957 1.71 2.957 3.934v4.53h-2.463V15.47c0-.958-.017-2.19-1.28-2.19-1.283 0-1.48 1.043-1.48 2.12v4.087h-2.462v-8.26z" fill="#FFF"/></g></svg><svg viewBox="0 0 157.5 39.334" id="logo" xmlns="http://www.w3.org/2000/svg"><defs><path id="ja" d="M149.445 18.102h-3.539v-2.866h10.351v2.866h-3.54v8.935h-3.271v-8.935h-.001zm-8.326-2.866h3.287v11.8h-3.287v-11.8zm-10.991 0h9.44v2.866h-6.17v2.006h5.578v2.714h-5.578v4.215h-3.271l.001-11.801zm-8.073 12.036c-.91 0-1.754-.16-2.529-.48s-1.443-.756-2.006-1.307-1.004-1.197-1.324-1.938a5.95 5.95 0 01-.479-2.377v-.034a6.01 6.01 0 011.821-4.34 6.332 6.332 0 012.021-1.315 6.564 6.564 0 012.528-.48c.91 0 1.753.16 2.528.48s1.443.756 2.007 1.306a6.03 6.03 0 011.323 1.939c.32.741.479 1.534.479 2.376v.033a6.002 6.002 0 01-1.821 4.342c-.572.557-1.246.994-2.021 1.314s-1.618.481-2.527.481zm.032-2.95c.45 0 .86-.085 1.229-.253.371-.17.687-.396.945-.684.258-.287.461-.621.605-1.003.146-.383.22-.786.22-1.214v-.034c0-.427-.073-.831-.22-1.214a3.08 3.08 0 00-1.584-1.71c-.371-.174-.781-.261-1.23-.261s-.857.084-1.223.252a2.937 2.937 0 00-1.55 1.686 3.521 3.521 0 00-.211 1.214v.032c0 .429.074.832.221 1.214.146.383.352.721.615 1.012.264.293.58.525.951.699a2.84 2.84 0 001.232.264zm-18.088-9.086h5.58c.909 0 1.68.112 2.31.337.629.225 1.141.54 1.534.944.696.674 1.045 1.59 1.045 2.748v.034c0 .91-.219 1.663-.657 2.259-.438.596-1.027 1.051-1.771 1.365l2.815 4.113h-3.776l-2.377-3.574h-1.432v3.574h-3.271v-11.8zm5.429 5.663c.562 0 .994-.127 1.299-.379.303-.254.455-.594.455-1.021v-.034c0-.472-.158-.823-.473-1.053s-.748-.346-1.299-.346h-2.141v2.833h2.159zm-16.774-5.663h5.058c.741 0 1.416.093 2.022.278a4.449 4.449 0 011.551.809c.428.354.756.79.986 1.307.229.517.346 1.101.346 1.753v.034c0 .696-.127 1.309-.379 1.837a3.75 3.75 0 01-1.055 1.332 4.608 4.608 0 01-1.609.81 7.297 7.297 0 01-2.031.271h-1.618v3.371h-3.271V15.236zm4.823 5.867c.584 0 1.041-.138 1.373-.412.332-.275.498-.649.498-1.122v-.034c0-.505-.166-.89-.498-1.154-.332-.264-.795-.396-1.391-.396h-1.534v3.12h1.552v-.002zm-16.066-5.867H90.9v2.782h-6.254v1.787h5.664v2.579h-5.664v1.871h6.338v2.781h-9.573v-11.8zm-10.384 0h3.271v8.934h5.714v2.866h-8.985v-11.8zm-11.244 0h9.491v2.782H63.02v1.787h5.664v2.579H63.02v1.871h6.338v2.781h-9.575v-11.8zm-8.243 2.866H48v-2.866h10.35v2.866h-3.54v8.935h-3.27v-8.935z"/></defs><clipPath id="jb"><use xlink:href="#ja" overflow="visible"/></clipPath><g clip-path="url(#jb)"><defs><path id="jc" d="M-380-281h600v800h-600z"/></defs><clipPath id="jd"><use xlink:href="#jc" overflow="visible"/></clipPath><path clip-path="url(#jd)" fill="#FFF" d="M43 10h118.257v22.272H43z"/></g><g clip-path="url(#jb)"><defs><path id="je" d="M12.724 37.79c.689.251 1.397.463 2.121.635v-19.17h8.482V38.5a18.83 18.83 0 002.121-.593V12.836h8.482v19.228a19.52 19.52 0 004.57-12.596C38.5 8.716 29.881 0 19.253 0 8.615 0 0 8.716 0 19.469a19.52 19.52 0 004.241 12.193v-5.989h8.482l.001 12.117z"/></defs><clipPath id="jf"><use xlink:href="#je" overflow="visible"/></clipPath><g clip-path="url(#jf)"><defs><path id="jg" d="M-380-281h600v800h-600z"/></defs><clipPath id="jh"><use xlink:href="#jg" overflow="visible"/></clipPath><path clip-path="url(#jh)" fill="#FFF" d="M-5-5h48.5v48.5H-5z"/></g></g></svg><svg viewBox="0 0 568 321" id="map" xmlns="http://www.w3.org/2000/svg"><path d="M513.562 12.683c2.091-6.205 7.732-9.655 13.14-12.683.705 3.27 1.378 6.54 1.944 9.835 3.024 1.248 6.033 2.565 9.16 3.566-1.462 2.294-3.187 4.407-4.963 6.456-2.646 3.046-3.034 3.029-6.876 2.492-2.25-.311-2.265 3.552-2.75 5.46.138 2.118-.727 2.591-2.6 1.405-2.09-.484-4.187-.952-6.279-1.446 1.093 1.889 2.864 3.16 4.9 3.86 3.54 1.221 3.362 1.273 4.61 5.096 1.215 3.684 1.827 4-.938 6.657-1.583 1.53-3.06 3.275-3.527 5.486 3.03-2.1 6.229-5.388 9.933-4.988 4.41.483 8.853.447 13.278.518-.018 2.82-1.8 5.07-3.453 7.18-2.094 2.678-.49 8.597-.124 11.907.868 7.76 2.445 15.53 5.749 22.651-4.197.284-6.265-.555-7.637 3.871a22.659 22.659 0 00-.568 11.067c-1.267-1.019-2.534-2.04-3.802-3.057.464 1.726.938 3.444 1.422 5.169.575 2.052-2.649 1.695-2.938 4.178-.397 3.482 2.916 6.81 4.596 9.54 1.12-3.063 1.937-6.222 3.042-9.288.11 2.11.225 4.225.321 6.336.14 2.938-.891 2.592-3.338 3.664a21.27 21.27 0 003.84 5.194 348.29 348.29 0 013.9-3.273c1.997 5.127 7.555 6.16 12.26 7.471-1.81 1.81-5.849 4.052-3.835 6.307 2.388 2.68 5.644 4.33 8.438 6.52-3.075 5.168-2.207 11.86 3.76 14.37-.725 1.38-1.445 2.76-2.17 4.141-1.087 2.07 1.395 4.104 2.382 6.152 2.227 4.624 3.208 9.744 3.561 14.839-8.548-5.877-17.485-11.198-25.641-17.62-3.468-2.733-7.434-5.616-9.708-9.481-1.204-2.043-2.023-4.286-2.712-6.549-.886-2.943-.775-3.409-3.759-4.29 2.122-4.284 3.82-6.406 2.372-11.108-1.454-4.713-3.136-9.37-4.11-14.21-.826-4.14.858-11.351-1.807-14.1-1.6-1.647-3.225-3.273-4.845-4.898-2.199-2.204-1.255-3.043-.579-5.858-1.507 1.31-2.947 2.71-4.35 4.134 4.35 3.747 4.238 9.579 5.135 14.78.603 3.52 2.134 4.163-1.231 6.065-1.311-1.543-4.097-6.414-5.94-5.329-2.695 1.583-3.633 2.443-5.126 5.273-2.017 3.828-1.036 5.696-.168 9.86.764 3.675 1.395 7.373 2.084 11.065.565 3.057.72 2.17 3.356 1.797 1.533-.218 3.08-.43 4.615-.654-1.817 1.753-3.667 3.474-5.427 5.294a34.297 34.297 0 01-5.636 8.628c-.71-1.737-1.42-3.477-2.15-5.208-1.99 1.042-3.984 2.076-5.978 3.106-2.582 1.33-1.98 1.236-1.77 3.812.198 2.487.799 2.472-1.646 3.735-1.857.956-3.693 1.944-5.546 2.91.447 2.93-3.766 3.417-6.024 5.17-2.577 1.998-4.756 4.663-5.515 7.876-1.616 6.804-1.868 14.527-2.74 21.483-1.062 8.483-2.058 17.107-5.449 25.038 1.895-.66 5.035-.553 6.422-2.207.96-1.143-.24-2.716-.974-3.573 2.035-1.487 4.024-3.032 6.099-4.472.124 2.59.276 5.179.46 7.766-1.83-1.188-3.737-2.053-5.713-2.975.717 1.84 2.015 3.377 3.266 4.873 1.998 2.387 4.812 1.407 7.809 1.983.104-2.72.15-5.444.167-8.167 3.164-1.065 6.51-.696 9.67.153 3.95 1.058 4.892 2.816 7.398 5.881 2.54 3.106 2.024 4.152 2.74 7.867.977 5.115 4.31 9.308 6.953 13.648 3.612 5.956 3.278 11.448 3.575 18.249.563 12.826-.408 25.811-2.999 38.407-.938 4.575-3.532 10.55-8.497 11.977-2.486.709-5.102.167-7.637.29-.818 3.629-1.932 7.177-3.038 10.722-2.983-4.185-.2-9.932-2.633-14.623-1.209-2.322-2.634-4.521-4.036-6.73 1.02-2.327 2.86-4.077 5.144-5.148 2.59-1.222 4.465-.168 4.155-3.5a142.863 142.863 0 00-1.08-8.521c-.986-6.373-2.295-12.68-3.445-19.02-2.656 3.088-4.809 6.564-7.329 9.762-1.417 1.813-2.965 3.542-4.752 5.01-3.025 2.493-3.118 1.733-5.48-1.06a990.09 990.09 0 01-3.836-4.556c-2.897-.36-5.81-.598-8.733-.536-4.512.1-8.904 1.466-11.758-3.08-3.904-6.232-8.545-13.24-15.675-16.06-8.46-3.344-18.294 2.153-24.5 7.82 8.323 6.674-1.59 17.439 3.144 25.469-2.24 1.942-4.477 3.882-6.586 5.968-2.92-1.518-6.202-1.856-9.439-1.991-3.215-.13-6.489-.125-9.592-1.084-2.03 2.408-4.207 4.706-6.602 6.76-4.874 4.178-9.201 6.587-15.7 5.801-6.922-.839-12.472-5.188-19.048-6.348-4.337-.767-13.156 3.974-16.282 1.454-1.933-1.554-2.938-3.886-3.973-6.063-1.517-3.205-3.795-3.706-7.036-4.92-2.554-.957-5.12-1.863-7.61-2.985-3.144-1.414-5.482 2.957-7.37 5.56-.32 3.63 2.968 7.441.023 9.88-3.148 2.606-3.648 2.56-7.542 1.841-4.253-.785-8.958-1.834-11.548-5.66-1.499-2.21-4.276-1.57-6.93-1.72-3.495-1.645-5.362-1.44-8.915-.14-5.633 2.064-10.989 4.821-16.691 6.713a47.344 47.344 0 01-3.85 1.112c-1.437-1.646-2.894-3.27-4.327-4.915-2.153.45-4.533.309-6.246-1.224-1.36-1.216-2.038-2.996-2.365-4.751-1.531-2.84-2.811-5.824-4.532-8.564-2.588-1.3-5.541-.081-8.154.384-2.861.506-4.094-5.036-5.18-7.392a465.077 465.077 0 00-5.363 5.277c-.438-10.652-.377-22.368-7.299-31.186 1.54-1.09 3.08-2.18 4.618-3.273-6.514 1.157-13.1 2.988-19.77 2.006.59-1.544 1.163-3.098 1.751-4.644-2.841-1.71-5.69-3.423-8.695-4.848.692-2.866 1.393-5.726 2.09-8.593-3.215-1.695-6.215-4.079-9.862-3.988-6.204.155-12.72-1.598-18.734-2.961-5.917-1.344-11.495-3.787-17.107-6.027.363 3.32.828 6.628 1.372 9.92a619.193 619.193 0 00-6.414-4.648c-.171 1.974-.304 3.94-.446 5.913a513.695 513.695 0 01-6.309-.718c.906 3.37 1.861 6.72 2.85 10.064-4.526.698-5.815.39-9.617-2.213-1.491-1.02-2.935-2.188-3.937-3.717-.974-1.498-.724-3.692-2.149-4.693-4.01-2.815-12.911-1.665-13.207-8.218-1.157.424-2.302.887-3.459 1.307 1.165-3.723.853-7.711-.712-11.267-1.658-3.763-4.718-4.53-7.65-7.138-2.63-2.339-7.988-1.603-11.449-1.647-3.285-.044-5.39 3.157-7.702 5.369.279-2.907.541-5.813.822-8.717-1.835.425-3.664.902-5.483 1.39-2.303.619-2.232 1.473-3.875 3.01-1.165 1.088-2.553 1.928-4.037 2.503-2.705 1.044-2.22 4.53-2.705 7.28 2.314 1.824 3.076 4.95 2.246 7.725a7.773 7.773 0 01-2.27 3.573c-1.959 1.718.635 4.04 1.857 6.193-6.077-1.522-12.387-3.76-18.732-2.526-3.534.692-4.234.857-3.739 4.255.523 3.55-.9 4.539-3.175 7.26-2.152 2.574-2.635 3.923-3.162 7.27-.23 1.468-.453 2.937-.674 4.409-.495 3.28-1.364 2.126-4.25 1.966-3.318-.18-3.989.292-4.593-3.135-.45-2.566-.579-5.173-.772-7.77-.329-4.435-.838-9.203-3.78-12.77-1.861-2.254-2.267-2.924-3.147-5.809-.895-2.95-2.232-5.736-3.64-8.474-2.735-5.297-5.414-10.078-6.088-16.084-.746-6.543-.796-13.143-.607-19.723a145.31 145.31 0 012.597 3.155c1.83 2.281 2.755 1.457 5.524 1.239 4.584-.365 4.336-.493 4.902-4.917 2.691 1.879 5.412 3.726 8.121 5.588l-3.207-7.11c2.891.812 5.757 1.749 8.577 2.785 3.142 1.157 4.355-.88 6.967-2.7 2.208-1.544 5.192-2.25 4.405-5.065-.638-2.287-1.075-4.622-1.613-6.93-.534-2.286-1.175-4.56-2.22-6.662-.905-1.819-3.284-3.77-2.998-5.953.274-2.086 2.12-3.722 3.575-5.059a834.63 834.63 0 00-2.388-5.294c2.098-.44 3.683-1.837 4.928-3.502 2.094-2.793 1.47-2.904-.845-5.34-1.722-1.817-3.45-3.625-5.052-5.551 1.892-2.232 4-4.272 6.054-6.348 1.798 1.969 2.661 5.607 5.95 5.462 1.107-2.187 1.446-4.636 1.696-7.046.354-3.45.957-4.146 3.573-6.472 1.595-1.423 3.188-2.856 4.628-4.439-.584-2.75-1.216-5.49-1.917-8.21-1.107-4.328 6.566-9.81 9.681-12.659 1.47 1.835 1.388 2.971 3.484 1.306 1.94-1.545 4.013-2.933 6.25-4.01 2.527-1.215 4.552-2.498 6.77-.49 1.997 1.808 3.91 3.703 5.968 5.433-.965-2.947-2.084-5.192-1.304-8.219.594-2.322-.08-2.426 2.783-1.907 2.201.395 4.395.822 6.599 1.201 3.438.599 9.076 2.254 12.45.948 2.754-1.066 2.298-5.01 3.132-7.279 6.297-5.5 13.903-9.35 19.81-15.316 2.139-2.165 4.983-1.715 7.54-3.364 1.022-.659 1.828-1.578 2.285-2.715 1.245-3.13.952-3.102 4.417-4.68 3.579-1.623 8.736 2.767 12.131 4.575-.23 1.802-1.196 3.427-1.25 5.267-.07 2.469 1.583 5.163 1.972 7.635.641 4.034.462 8.14.279 12.199-.14 3.216.624 7.423-1.806 9.997-3.118 3.303-9.386 2.953-12.359-.362-5.017-5.58-4.855-15.603-5.15-22.586a60.842 60.842 0 00-2.538 7.148 52.675 52.675 0 00-.918 3.7c-.552 2.596-1.807 2.847-3.923 4.356-3.558 2.53-5.285 3.053-5.238 7.52.037 3.074.294 6.212 1.731 8.992 2.387-3.304 1.928-8.88 6.46-10.382.294 4.51 1.055 9.005 2.442 13.313 1.44-1.656 2.767-3.395 4.212-5.043 2.238-2.551 5.267-1.545 8.443-1.268 1.97.173 4.554-.681 4.767 1.642.188 2.001.37 4.002.555 6.002 4.35-4.182 8.675-8.385 12.882-12.702 2.42-2.482 2.947-.33 5.1 1.706-.37 2.222-.753 4.445-1.117 6.667a253.118 253.118 0 00-7.03-1.854 801.674 801.674 0 00-1.73 7.36c4.74 1.555 9.601-1.189 14.37.045 5.857 1.08 11.685 2.388 17.62 2.977-2.432 1.036-4.692 2.473-6.627 4.281 3.191 2.17 6.041.152 8.772 3.081 1.772 1.901 6.922.57 9.48.444-1.409 1.834-3.012 3.645-4.198 5.632 1.746-.524 3.495-1.047 5.264-1.484 2.576-.636 1.923-1.348 2.41-3.76.738-3.676-1.816-6.882-.143-10.768 1.528 2.63 2.692 5.484 3.333 8.46 2.348 1.775 4.241 4.058 5.763 6.559 3.056 5.022 4.699 10.727 7.344 15.958 3.174-4.04 1.96-9.479.886-14.035 1.401-1.36 4.055-2.825 4.092-4.825.04-2.078-.607-3.327 1.435-4.04 7.365-2.576 10.854-11.987 19.12-12.593-1.887 2.17-3.722 2.767-2.063 5.157 1.563 2.257.954 4.866-.422 7.028-1.145 1.802-4.29 3.734-4.066 5.809.38 3.659-.323 5.067-2.129 8.318-1.398 2.52-2.756 5.164-3.198 8.043-.264 1.743-.157 3.519.373 5.206a90.6 90.6 0 01-3.977 4.458c-2.152 2.264-4.034 4.126-6.804 5.547-2.275 1.17-2.018 1.796-4.11-.118-1.532-1.402-3.11-2.765-4.771-4.023.777 3.483 3.517 5.843 6.26 7.855 2.265 1.661 5.276-.84 7.613-2.147 4.898-2.74 9.352-6.712 8.957-12.814 1.303.19 2.608.359 3.911.54 3.375.46 2.422 1.47 2.06 4.718-.248 2.202-.5 4.405-.59 6.62 1.622 1.879 3.384 3.639 5.107 5.423-1.173-2.214-2.478-4.357-3.546-6.623.58-2.366 1.687-4.554 2.322-6.904-1.824-4.346-6.424-6-10.573-7.32 2.509-4.764 6.377-8.52 6.23-13.941-.147-5.526 6.67-8.834 10.627-12.034a94.326 94.326 0 01-4.515 8.356c2.487.06 4.968.092 7.45.147-.568-2.041-1.12-4.081-1.687-6.118 2.572 2.102 4.851 4.54 7.073 7.001 1.862 2.068 5.97 4.805 4.464 7.208-3.204 5.113-2.733 12.188.363 17.232-.865-6.577 2.179-12.968 1.539-19.284-.395-3.854-4.917-6.755-3.311-10.89-3.408 1.015-7.25 1.47-5.867-3.42.546 1.243 1.084 2.488 1.629 3.736 1.548-1.283 3.088-2.58 4.64-3.856 2.1-1.727 3.104-1.083 5.695-.698 4.137.614 8.265 1.381 12.302 2.482-.25-3.15-.459-6.312-.655-9.47 3.425-2.287 7.079-4.29 10.969-5.646 3.86-1.35 7.994-2.039 12.076-1.488 3.18-1.246 6.191-3.95 9.851-2.889a243.831 243.831 0 00-1.56-4.77 465.287 465.287 0 015.906-6.817c1.66 1.064 2.94 2.613 3.405 4.553.57 2.4 1.965 1.561 4.343 1.612-.728 1.427-1.496 2.838-2.236 4.263l2.53-.108c-1.295-3.847 3.603-2.897 6.162-3.122a207.051 207.051 0 005.843 3.754c.623 2.82 1.274 5.632 2.025 8.421-5.905 6.955-11.64 14.06-17.342 21.182 2.796-1.808 5.559-3.673 8.34-5.506 3.714-2.456 3.272-3.104 3.14-7.343 1.806 1.184 3.615 2.36 5.42 3.545.469-4.128.108-3.667-3.797-5.024a162.588 162.588 0 014.744-3.522c.143 2.927.265 5.856.405 8.776 2.65-.814 5.294-1.65 7.967-2.366 1.345-.361 2.7-.683 4.065-.966.496 1.288 1.29 2.507 2.526 3.202 3.34 1.881 7.7-.513 10.89-1.639a601.072 601.072 0 01-2.403-6.418c3.075-.266 10.147-2.667 12.351-1.048 3.645 2.68 5.764 7.038 4.442 11.537.78-1.142 1.537-2.302 2.304-3.464.134 5.079 4.444 7.51 8.897 8.464-.538-3.63-1.134-7.25-1.773-10.866 1.472.627 2.949 1.248 4.428 1.868 2.147.898 1.579-.517 2.652-2.132 1.825-2.757 4.546-2.914 7.23-1.173.7-2.332 2.092-4.825 1.597-7.346-.345-1.746-1.566-2.152-1.596-3.979-.024-1.492-.042-2.986-.086-4.475 7.64-2.835 14.75-6.518 22.172-9.814.121 1.157.194 2.322.28 3.481 2.689-.46 9.863.516 11.139-1.587 1.46-2.402 2.65-4.972 4.35-7.22 1.686-2.224 3.915-3.945 6.751-4.296 2.939-1.08 5.173 1.603 7.354 3.047 4.493 2.986 6.937-7.26 8.742-9.557a6.729 6.729 0 012.98-2.185 162.747 162.747 0 011.558-3.562c-.677-2.805-.836-5.886 2.195-7.32-.08 2.154-.177 4.316-.296 6.474a1295.49 1295.49 0 0110.022-3.018c-2.917-2.898-7.075-3.646-10.888-4.685 5.47-5.527 7.697-13.73 14.155-18.357 3.099-2.222 21.161-9.306 19.587-13.063 4.29.065 9.188 2.415 13.063-.483-2.57-.167-5.131-.314-7.7-.485" fill="#EBEFF3" fill-rule="evenodd"/></svg><svg viewBox="0 0 23 14" id="menu" xmlns="http://www.w3.org/2000/svg"><g fill="#FFF" fill-rule="evenodd"><path d="M0 2h22.461V0H0v2zM0 8h22.461V6H0v2zM0 14h22.461v-2H0v2z"/></g></svg><svg viewBox="0 0 267.5 267.5" id="red-circle" xmlns="http://www.w3.org/2000/svg"><defs><style>.mcls-1{fill:#f25c5c}</style></defs><circle class="mcls-1" cx="133.75" cy="133.75" r="133.75"/></svg><svg id="red-circle-rounds" data-name="Группа 1" viewBox="0 0 423 423" xmlns="http://www.w3.org/2000/svg"><defs><style>.ncls-1,.ncls-2{fill:#fff;stroke:#000;stroke-linejoin:round;stroke-width:1px}.ncls-1{opacity:.06}.ncls-2{opacity:.07}</style></defs><circle id="nEllipse_1_copy_3" data-name="Ellipse 1 copy 3" class="ncls-1" cx="211.766" cy="211.125" r="208.453"/><circle id="nEllipse_1_copy_2" data-name="Ellipse 1 copy 2" class="ncls-2" cx="211.75" cy="211.125" r="169.563"/></svg><svg id="red-square" data-name="Слой 1" viewBox="0 0 206.72 254.8" xmlns="http://www.w3.org/2000/svg"><defs><style>.ocls-1{fill:#f25c5c}</style></defs><path class="ocls-1" d="M0 0h206.72v254.8H0z" transform="translate(.01 .01)"/></svg><svg viewBox="0 0 333.187 333.937" id="red-triangle" xmlns="http://www.w3.org/2000/svg"><defs><style>.pcls-1{fill:#f25c5c;fill-rule:evenodd}</style></defs><path id="pPolygon_3" data-name="Polygon 3" class="pcls-1" d="M600.163 627.327q-243.162 69.167-181.48-176t243.162-69.167q181.48 176.001-61.682 245.167z" transform="translate(-406.219 -308.594)"/></svg><svg viewBox="0 0 435 436" id="red-triangle-bg" xmlns="http://www.w3.org/2000/svg"><defs><style>.qcls-1,.qcls-2{fill:#fff;fill-opacity:0;stroke-linejoin:round;stroke-width:1px;fill-rule:evenodd}.qcls-1{stroke:#f4f4f4}.qcls-2{stroke:#ededed}</style></defs><path id="qPolygon_3_copy_2" data-name="Polygon 3 copy 2" class="qcls-1" d="M609.015 671.89q-312.963 89.02-233.576-226.524T688.4 356.345q233.578 226.526-79.385 315.545z" transform="translate(-356.5 -258.5)"/><path id="qPolygon_3_copy" data-name="Polygon 3 copy" class="qcls-2" d="M604.873 648.909q-276.14 78.546-206.092-199.871t276.139-78.546q206.093 199.872-70.047 278.417z" transform="translate(-356.5 -258.5)"/></svg><svg id="right" data-name="Слой 1" viewBox="0 0 33 33" xmlns="http://www.w3.org/2000/svg"><defs><style>.rcls-1,.rcls-2{fill:#fff;stroke:#008aff}.rcls-2{fill:none}</style></defs><g id="rPage-1"><g id="rright"><circle id="rOval-1" class="rcls-1" cx="16.5" cy="16.5" r="16"/><path id="rPath-1" class="rcls-2" d="M14 11l6 6-6 6" transform="translate(-.5 -.5)"/></g></g></svg><svg id="thin-arrow" data-name="Слой 1" viewBox="0 0 130 124" xmlns="http://www.w3.org/2000/svg"><defs><style>.scls-1{fill:none;stroke:#979797;stroke-miterlimit:10}</style></defs><path class="scls-1" d="M.52.5S-4 107.5 129 121.5M118 123.35l11-1.85-10.43-4.11M.52.5S-4 107.5 129 121.5"/></svg></svg>